<?xml version="1.0" encoding="UTF-8" standalone="no"?>
<!DOCTYPE svg PUBLIC "-//W3C//DTD SVG 1.1//EN" "http://www.w3.org/Graphics/SVG/1.1/DTD/svg11.dtd">
<svg width="100%" height="100%" viewBox="0 0 18 16" version="1.1" xmlns="http://www.w3.org/2000/svg" xmlns:xlink="http://www.w3.org/1999/xlink" xml:space="preserve" xmlns:serif="http://www.serif.com/" style="fill-rule:evenodd;clip-rule:evenodd;stroke-linejoin:round;stroke-miterlimit:1.41421;">
    <g transform="matrix(1,0,0,1,-1354,-34)">
        <g transform="matrix(1,0,0,1.05886,0,0)">
            <g id="icon-upload" transform="matrix(0.0993139,0,0,0.0937935,1352.91,30.3054)">
                <path d="M155,70C150,44.375 127.5,25 100,25C72.5,25 50,44.375 45,70C26.25,75 12.5,92.5 12.5,112.5C12.5,136.875 31.875,156.25 56.25,156.25L62.5,156.25L62.5,143.75L56.25,143.75C38.75,143.75 25,130 25,112.5C25,95 38.75,81.25 56.25,81.25C56.25,56.875 75.625,37.5 100,37.5C124.375,37.5 143.75,56.875 143.75,81.25C161.25,81.25 175,95 175,112.5C175,130 161.25,143.75 143.75,143.75L137.5,143.75L137.5,156.25L143.75,156.25C168.125,156.25 187.5,136.875 187.5,112.5C187.5,92.5 173.75,75 155,70Z" style="fill:rgb(51,51,51);fill-rule:nonzero;"/>
                <path d="M105.625,95.625C103.125,93.75 100.625,93.125 98.125,94.375C97.5,94.375 96.875,95 96.25,95.625L77.5,113.75C75,116.25 75,120 77.5,122.5C80,125 84.375,125 86.875,122.5L94.375,115.625L94.375,168.75C94.375,172.5 97.5,175 100.625,175C104.375,175 106.875,171.875 106.875,168.75L106.875,115.625L114.375,122.5C116.875,125 121.25,125 123.75,122.5C126.25,120 126.25,116.25 123.75,113.75L105.625,95.625Z" style="fill:rgb(51,51,51);fill-rule:nonzero;"/>
            </g>
        </g>
    </g>
</svg>
